<svg xmlns="http://www.w3.org/2000/svg" width="800.838" height="779.08" viewBox="0 0 800.838 779.08" xmlns:xlink="http://www.w3.org/1999/xlink" role="img" artist="Katerina Limpitsouni" source="https://undraw.co/"><g transform="translate(-241 -311)"><path d="M519.024,573.53h-20.76L486.23,462.64h32.079Z" transform="translate(190.213 498.708)" fill="#ed9da0"/><path d="M477.854,592.047c-2.184,0-4.13-.05-5.59-.189-5.51-.506-10.772-4.577-13.413-6.95a3.761,3.761,0,0,1-.953-4.24h0a3.76,3.76,0,0,1,2.432-2.154l14.565-4.16,23.59-15.915.268.477a42.113,42.113,0,0,1,3.187,7.168,3.194,3.194,0,0,1-.228,2.661,2.538,2.538,0,0,1-1.092.913c.427.447,1.767,1.35,5.888,2.006,6.027.953,7.278-5.282,7.337-5.54l.04-.208.179-.119c2.869-1.847,4.627-2.681,5.232-2.5.377.109,1.013.308,2.72,17.285a17.434,17.434,0,0,1,.556,8.181c-.884,4.071-18.646,2.671-22.2,2.343-.1.01-13.393.953-22.508.953Z" transform="translate(190.418 498.023)" fill="#090814"/><path d="M471.794,573.53h-20.75L439.01,462.64h32.079Z" transform="translate(183.128 498.708)" fill="#ed9da0"/><path d="M432.34,594.9c-2.369,0-4.48-.054-6.063-.2-5.977-.549-11.685-4.965-14.55-7.539a4.08,4.08,0,0,1-1.034-4.6h0a4.079,4.079,0,0,1,2.639-2.337l15.8-4.513L454.72,558.44l.291.517a45.686,45.686,0,0,1,3.457,7.776,3.465,3.465,0,0,1-.248,2.886,2.754,2.754,0,0,1-1.185.991c.463.485,1.917,1.465,6.387,2.176,6.537,1.034,7.894-5.729,7.959-6.01l.043-.226.194-.129c3.1-2,5.019-2.908,5.676-2.714.409.118,1.1.334,2.951,18.75a18.913,18.913,0,0,1,.6,8.874c-.958,4.416-20.226,2.9-24.082,2.542-.108.011-14.529,1.034-24.415,1.034Z" transform="translate(177.804 495.173)" fill="#090814"/><path d="M1110.063,199.066H311.543a1.159,1.159,0,0,1,0-2.318h798.52a1.159,1.159,0,1,1,0,2.318Z" transform="translate(-69.384 153.657)" fill="#cacaca"/><circle cx="12.749" cy="12.749" r="12.749" transform="translate(255.496 311)" fill="#3f3d56"/><circle cx="12.749" cy="12.749" r="12.749" transform="translate(299.536 311)" fill="#3f3d56"/><circle cx="12.749" cy="12.749" r="12.749" transform="translate(343.577 311)" fill="#3f3d56"/><path d="M878.993,175.17H847.7a2.318,2.318,0,0,1,0-4.636h31.292a2.318,2.318,0,0,1,0,4.636Z" transform="translate(135.299 143.628)" fill="#3f3d56"/><path d="M878.993,181.457H847.7a2.318,2.318,0,0,1,0-4.636h31.292a2.318,2.318,0,0,1,0,4.636Z" transform="translate(135.299 146.033)" fill="#3f3d56"/><path d="M878.993,187.744H847.7a2.318,2.318,0,0,1,0-4.636h31.292a2.318,2.318,0,0,1,0,4.636Z" transform="translate(135.299 148.438)" fill="#3f3d56"/><rect width="731.775" height="387.705" transform="translate(265.056 405.135)" fill="#f0f0f0"/><path d="M1059.558,308.9v-3.8H917.11v-68.77h-3.8V305.1H770.86v-68.77h-3.8V305.1H624.61v-68.77h-3.8V305.1H478.36v-68.77h-3.8V305.1H327.783v3.8H474.558v75.973H327.783v3.8H474.558v75.973H327.783v3.8H474.558v75.959H327.783v3.8H474.558v75.821h3.8V548.217H620.808v75.821h3.8V548.217H767.058v75.821h3.8V548.217H913.308v75.821h3.8V548.217h142.448v-3.8H917.11V468.455h142.448v-3.8H917.11V388.68h142.448v-3.8H917.11V308.9Zm-438.75,235.51H478.36V468.455H620.808Zm0-79.761H478.36V388.68H620.808Zm0-79.775H478.36V308.9H620.808Zm146.25,159.537H624.61V468.455H767.058Zm0-79.761H624.61V388.68H767.058Zm0-79.775H624.61V308.9H767.058Zm146.25,159.537H770.86V468.455H913.308Zm0-79.761H770.86V388.68H913.308Zm0-79.775H770.86V308.905H913.308Z" transform="translate(-62.727 168.802)" fill="#fff"/><rect width="48.956" height="47.395" transform="translate(443.971 496.183)" fill="#cacaca"/><rect width="48.956" height="47.395" transform="translate(894.694 649.65)" fill="#cacaca"/><rect width="48.956" height="47.395" transform="translate(459.179 728.457)" fill="#cacaca"/><rect width="48.956" height="47.395" transform="translate(473.648 487.389)" fill="#2E4C3C"/><path d="M370.13,284.4l58.095-51.76,17.139,8.492-69.677,73.081Z" transform="translate(382.606 400.004)" fill="#ed9da0"/><circle cx="13.826" cy="13.826" r="13.826" transform="translate(804.651 622.781)" fill="#ed9da0"/><path d="M679.631,500.89s34.565-2.57,23.5,53.966S683.309,768.7,683.309,768.7H648.393l-12.271-206.3-9.284,206.3-34.366-2.653L574.555,544.577s-8.305-17.807,0-30.1S679.631,500.89,679.631,500.89Z" transform="translate(30.272 270.011)" fill="#090814"/><path d="M633.533,393.318l9.6-5.141s23.644-2.017,33.293,25.758l25.59,38.651,41.478-35.947,17.974,12.443L709.19,491.47s-4.55,17.291-21.736,2.777-47.008-60.834-47.008-60.834Z" transform="translate(54.249 226.882)" fill="#3f3d56"/><path d="M622.311,310.753c-39.428,0-50.464,43.312-50.464,67.747s22.594,20.739,50.464,20.739c11.963,0,22.946.675,31.6-.48l4.16-10.158,3.348,8.417c7.1-2.608,11.362-7.91,11.362-18.518C672.775,354.065,663.1,310.753,622.311,310.753Z" transform="translate(30.648 197.274)" fill="#2f2e41"/><path d="M0,0H29.3l5.936,38.712H0Z" transform="translate(638.975 585.451)" fill="#ed9da0"/><circle cx="33.958" cy="33.958" r="33.958" transform="translate(618.832 528.556)" fill="#ed9da0"/><path d="M579.846,357.7h13.431l5.925-16.591,1.185,16.591h6.419l3.456-9.678.691,9.678h47.7a35.947,35.947,0,0,0-35.947-35.947h-6.913A35.947,35.947,0,0,0,579.846,357.7Z" transform="translate(33.709 201.482)" fill="#2f2e41"/><rect width="48.956" height="47.395" transform="translate(791.642 584.17)" fill="#2E4C3C"/><path d="M692.429,534.337c-5.214.067-20.918-93.117-20.918-93.117L669.16,391,652,390.428V389.3a8.546,8.546,0,0,0-8.546-8.546H610.774a8.539,8.539,0,0,0-8.518,8L588.8,388.3l-23.3,74.043s21.475,68.8,11.11,99.117c0,0,100.981,8.672,120.313-10.576C696.917,550.886,697.643,534.27,692.429,534.337Z" transform="translate(28.218 224.055)" fill="#3f3d56"/><path d="M605.692,395.674l-5.784-9.225s-18.817-4.652-26.564,7.817-53.431,65.6-30.518,80.032,23.5,8.3,23.5,8.3L593,445.2Z" transform="translate(17.108 225.909)" fill="#3f3d56"/><rect width="48.956" height="47.395" transform="translate(632.645 669.89)" fill="#2E4C3C"/><path d="M571.637,440.715l-17.032-1.8h0a16.709,16.709,0,0,0,11.859,23.477l67.392,13.45-7.03-21.65Z" transform="translate(23.447 246.306)" fill="#ed9da0"/><circle cx="13.826" cy="13.826" r="13.826" transform="translate(643.68 694.743)" fill="#ed9da0"/><path d="M618.383,478.1l-51.342-11.732a22.181,22.181,0,0,1-16.083-14.712l-2.075-6.4,13.325-10.486,61.045,17.062Z" transform="translate(21.863 244.72)" fill="#3f3d56"/><path d="M680.933,732.518H426.491c-.369,0-.668-.619-.668-1.383s.3-1.383.668-1.383H680.933c.369,0,.668.619.668,1.383S681.3,732.518,680.933,732.518Z" transform="translate(105.729 357.561)" fill="#e6e6e6"/></g></svg>